<?xml version="1.0" encoding="utf-8"?>
<!-- Generator: Adobe Illustrator 21.0.0, SVG Export Plug-In . SVG Version: 6.00 Build 0)  -->
<svg version="1.1" id="Capa_1" xmlns="http://www.w3.org/2000/svg" xmlns:xlink="http://www.w3.org/1999/xlink" x="0px" y="0px"
	 viewBox="0 0 512 512" style="enable-background:new 0 0 512 512;" xml:space="preserve">
<style type="text/css">
	.st0{fill:#768E9D;}
</style>
<g>
	<g>
		<path class="st0" d="M256,0C147.4,0,59.1,88.3,59.1,196.9c0,59.8,26.8,113.4,68.9,149.5v155.7c0,3,1.4,5.9,3.8,7.8
			c2.4,1.9,5.5,2.5,8.4,1.8L256,482.8l115.8,28.9c0.8,0.2,1.6,0.3,2.4,0.3c2.2,0,4.3-0.7,6.1-2.1c2.4-1.9,3.8-4.7,3.8-7.8V346.4
			c42.2-36.1,68.9-89.8,68.9-149.5C452.9,88.3,364.6,0,256,0z M256,462.8c-0.8,0-1.6,0.1-2.4,0.3l-105.9,26.5V361.4
			c7.2,4.7,14.6,8.9,22.3,12.7c0.7,0.3,1.4,0.7,2.1,1c0.3,0.2,0.7,0.3,1,0.5c20,9.3,41.9,15.4,64.8,17.5c0.1,0,0.1,0,0.2,0
			c1.9,0.2,3.8,0.3,5.7,0.4c0.5,0,0.9,0.1,1.4,0.1c0.6,0,1.3,0.1,1.9,0.1c0.9,0,1.9,0.1,2.8,0.1c0.5,0,1,0,1.6,0
			c1.5,0,3,0.1,4.4,0.1c1.5,0,3,0,4.4-0.1c0.5,0,1,0,1.6,0c0.9,0,1.9-0.1,2.8-0.1c0.6,0,1.3-0.1,1.9-0.1c0.5,0,1-0.1,1.4-0.1
			c1.9-0.1,3.8-0.3,5.7-0.4c0.1,0,0.1,0,0.2,0c17.7-1.6,34.8-5.6,50.9-11.6v32.2c0,5.4,4.4,9.8,9.8,9.8s9.8-4.4,9.8-9.8v-40.8
			c6.8-3.4,13.3-7.2,19.7-11.4v128.2l-105.9-26.5C257.6,462.9,256.8,462.8,256,462.8z M333.4,356.3c-19.4,9.4-40.5,15.3-62.1,17.2
			c-0.1,0-0.2,0-0.2,0c-1,0.1-2.1,0.2-3.1,0.2c-0.4,0-0.9,0.1-1.3,0.1c-0.8,0-1.6,0.1-2.5,0.1c-0.7,0-1.5,0.1-2.2,0.1
			c-0.6,0-1.2,0-1.8,0.1c-1.4,0-2.8,0.1-4.2,0.1s-2.8,0-4.2-0.1c-0.6,0-1.2,0-1.8-0.1c-0.7,0-1.5-0.1-2.2-0.1
			c-0.8,0-1.7-0.1-2.5-0.1c-0.4,0-0.9-0.1-1.3-0.1c-1-0.1-2.1-0.1-3.1-0.2c-0.1,0-0.2,0-0.2,0c-21.6-1.9-42.7-7.8-62.2-17.2
			c-59-28.8-99.7-89.4-99.7-159.4c0-97.7,79.5-177.2,177.2-177.2s177.2,79.5,177.2,177.2C433.2,266.9,392.5,327.5,333.4,356.3z"/>
	</g>
</g>
<g>
	<g>
		<path class="st0" d="M256,39.1c-87,0-157.9,70.8-157.9,157.9S169,354.8,256,354.8S413.9,284,413.9,196.9S343,39.1,256,39.1z
			 M256,335.1c-76.2,0-138.2-62-138.2-138.2S179.8,58.7,256,58.7s138.2,62,138.2,138.2S332.2,335.1,256,335.1z"/>
	</g>
</g>
<g>
	<g>
		<path class="st0" d="M343.7,176.3c-1.2-3.6-4.2-6.2-7.9-6.7l-49-7.1l-21.9-44.4c-1.7-3.4-5.1-5.5-8.8-5.5s-7.2,2.1-8.8,5.5
			l-21.9,44.4l-49,7.1c-3.7,0.5-6.8,3.1-7.9,6.7c-1.2,3.6-0.2,7.5,2.5,10.1l35.5,34.6l-8.4,48.8c-0.6,3.7,0.9,7.4,3.9,9.6
			c3,2.2,7.1,2.5,10.4,0.8l43.8-23l43.8,23c1.4,0.8,3,1.1,4.6,1.1c2,0,4.1-0.6,5.8-1.9c3-2.2,4.6-5.9,3.9-9.6l-8.4-48.8l35.5-34.6
			C343.9,183.8,344.8,179.9,343.7,176.3z M288.3,210.5c-2.3,2.3-3.4,5.5-2.8,8.7l5.9,34.2l-30.7-16.2c-1.4-0.8-3-1.1-4.6-1.1
			s-3.1,0.4-4.6,1.1l-30.7,16.2l5.9-34.2c0.5-3.2-0.5-6.5-2.8-8.7l-24.9-24.2l34.4-5c3.2-0.5,6-2.5,7.4-5.4l15.4-31.2l15.4,31.1
			c1.4,2.9,4.2,4.9,7.4,5.4l34.4,5L288.3,210.5z"/>
	</g>
</g>
<g>
	<g>
		<path class="st0" d="M344.4,441.2c-0.1-0.6-0.3-1.3-0.6-1.8c-0.2-0.6-0.6-1.2-0.9-1.7c-0.4-0.5-0.8-1-1.2-1.5
			c-0.5-0.5-1-0.9-1.5-1.2c-0.5-0.4-1.1-0.7-1.7-0.9c-0.6-0.2-1.2-0.4-1.8-0.6c-1.3-0.2-2.6-0.2-3.8,0c-0.6,0.1-1.3,0.3-1.9,0.6
			c-0.6,0.2-1.2,0.5-1.7,0.9c-0.5,0.4-1,0.8-1.5,1.2c-0.5,0.5-0.9,1-1.2,1.5c-0.4,0.5-0.6,1.1-0.9,1.7c-0.2,0.6-0.4,1.2-0.6,1.8
			s-0.2,1.3-0.2,1.9c0,2.6,1.1,5.1,2.9,7c0.5,0.5,1,0.9,1.5,1.2c0.5,0.4,1.1,0.7,1.7,0.9c0.6,0.2,1.2,0.4,1.9,0.6
			c0.6,0.1,1.3,0.2,1.9,0.2c0.6,0,1.3-0.1,1.9-0.2c0.6-0.1,1.3-0.3,1.8-0.6c0.6-0.2,1.2-0.6,1.7-0.9c0.5-0.4,1-0.8,1.5-1.2
			c0.5-0.5,0.9-1,1.2-1.5c0.4-0.5,0.7-1.1,0.9-1.7c0.2-0.6,0.4-1.2,0.6-1.8c0.1-0.6,0.2-1.3,0.2-1.9
			C344.6,442.4,344.5,441.8,344.4,441.2z"/>
	</g>
</g>
</svg>
