<?xml version="1.0" encoding="utf-8"?>
<!-- Generator: Adobe Illustrator 21.0.0, SVG Export Plug-In . SVG Version: 6.00 Build 0)  -->
<svg version="1.1" id="Layer_1" xmlns="http://www.w3.org/2000/svg" xmlns:xlink="http://www.w3.org/1999/xlink" x="0px" y="0px"
	 viewBox="0 0 90.2 40.5" style="enable-background:new 0 0 90.2 40.5;" xml:space="preserve">
<style type="text/css">
	.st0{fill:#22B9FF;}
</style>
<g>
	<path class="st0" d="M88.6,33.4c0.2-0.5,5.2-12.7-3.3-26.6l-0.8-1.3L83,5.9c0,0-4.5,1.5-10,1.5c-6.6,0-11.8-2.1-15.4-6.1L56.4,0
		L55,1c-0.2,0.1-18.6,12.6-31.3,12.6c-12.2,0-23.5,2.3-23.5,19.1v1.9h87.9L88.6,33.4z M22.6,17.5v13.2H4.1
		C4.7,21.2,9.8,17.6,22.6,17.5z M85.4,30.7H26.5V17.3c11.4-1.3,25-9.4,29.3-12.2c4.2,4,10.1,6.2,17.2,6.2c4.2,0,7.8-0.8,9.7-1.3
		C87.9,19.5,86.3,27.7,85.4,30.7z"/>
	<rect y="36.7" class="st0" width="88.2" height="3.9"/>
	<circle class="st0" cx="37" cy="18.4" r="2.1"/>
	<path class="st0" d="M44.5,13.2c-1.2,0-2.1,0.9-2.1,2.1s0.9,2.1,2.1,2.1c1.2,0,2.1-0.9,2.1-2.1C46.6,14.1,45.7,13.2,44.5,13.2z"/>
	<circle class="st0" cx="52" cy="12.1" r="2.1"/>
</g>
</svg>
